<svg id="Camada_1" data-name="Camada 1" xmlns="http://www.w3.org/2000/svg" viewBox="0 0 574.68 467.44"><defs><style>.cls-1{fill:#9ac3b9;opacity:0.45;}</style></defs><title>Contactosimg</title><path class="cls-1" d="M450.19,119.13C375.73,290.78,509.77,339.23,296.8,414,207.15,445.44,60,275.33,60,186.27S137.68,25,233.5,25,486,36.53,450.19,119.13Z"/><g id="gbiAQc.tif"><path d="M515.35,170.38V344.45c-.64,1.53-1.36,3-1.9,4.59-4.78,13.92-20.67,26.19-38.24,26-57.95-.67-115.92-.21-173.88.15a17.65,17.65,0,0,0-11.11,4.56C270.81,398.6,251.8,417.87,232.65,437c-1.74,1.74-3.63,3.32-6.59,6V375c-4.65,0-8.68-.17-12.69,0-10.81.54-20.78-2-28-10.21-4.94-5.58-8.31-12.55-12.39-18.89V169c1.06-2.07,2.13-4.13,3.18-6.21,5.07-10.11,12.82-17.4,23.68-20.57,5.19-1.51,10.85-1.38,16.3-2h269C499.67,145.79,510.19,155.4,515.35,170.38ZM247.78,392.44c11.87-12,22.41-22.34,32.53-33.07,3.78-4,7.74-5.42,13.18-5.42q91.32-.09,182.64-.63c11.52-.06,17.63-6.46,17.64-17.78q0-77.66,0-155.32c0-11.73-6.39-18.29-18-18.33q-44.94-.13-89.89-.13-86.64,0-173.3.19c-12.25,0-18.49,6.52-18.46,18.67q.18,77.65.46,155.32c.06,12.6,4.26,17.06,16.67,17.4,11.91.33,23.85.07,36.52.07Z"/><path d="M343,268.21q-53.16,0-106.32,0c-8,0-13.33-5.79-11.68-12.63,1.4-5.77,5.33-7.84,11.17-7.84,34.48-.05,69-.4,103.44-.42,36.4,0,72.79.2,109.19.31,8.08,0,12.57,3.74,12.47,10.29s-4.7,10.31-12.66,10.31Z"/><path d="M317.15,322c-27.07,0-54.15.25-81.21-.3-3.61-.08-8.56-3.49-10.25-6.73-1.36-2.6.53-7.71,2.38-10.89,1.07-1.84,4.91-2.89,7.51-2.9q81.21-.13,162.43.12a10.1,10.1,0,0,1,10.37,10.37c-.1,5.66-4.59,10-10.74,10q-40.25.08-80.49,0Z"/><path d="M290.22,194.71c17.72,0,35.45-.08,53.18,0,7.46.05,11.16,3.64,11,10.1-.12,6.21-4,9.92-11.52,10q-53.9.33-107.8.29a10,10,0,0,1-10.42-10.35c0-6.46,3.94-10.52,10.9-10.56,18.2-.11,36.41,0,54.62,0Z"/></g></svg>