<svg id="Camada_1" data-name="Camada 1" xmlns="http://www.w3.org/2000/svg" viewBox="0 0 574.68 467.44"><defs><style>.cls-1{fill:#9ac3b9;opacity:0.45;}.cls-2,.cls-3,.cls-4{stroke:#000;stroke-miterlimit:10;}.cls-2,.cls-3{stroke-width:6px;}.cls-3{fill:#fff;}.cls-4{stroke-width:0.5px;}</style></defs><title>Skills</title><path class="cls-1" d="M527.06,251.23C447.32,519,327.57,292,240.32,292s-148,34.24-148-53S268.36,38.36,355.6,38.36,589.93,40.07,527.06,251.23Z"/><g id="YvfmCJ.tif"><path class="cls-2" d="M321.55,381.36v30.28c4.06,0,8.1-.1,12.12,0,3.33.12,5.27,2.2,5.22,5.21s-2,4.9-5.37,5.08c-.66,0-1.33,0-2,0H205.89c-3.8-.11-5.9-2-5.89-5.23s2.14-5,6-5.1c2.65-.06,5.3,0,8,0,1.08,0,2.15-.09,3.39-.15V381.36h-3.94q-38.79,0-77.57,0c-11.59,0-20.7-4.73-26-15.12a30.69,30.69,0,0,1-3.31-13.3q-.3-102.6-.12-205.2c0-16.76,12.32-28.7,29.44-28.71q96.79,0,193.59,0,36.46,0,72.93,0c17.75,0,30.13,12.11,30.13,29.85q0,101.28,0,202.55c0,18-11.87,29.9-29.92,29.94-25.63.06-51.27,0-76.9,0Zm100.62-62v-3.62q0-83.35,0-166.71c0-12.36-7.43-19.8-19.82-19.81H151.12c-5.42,0-10.83-.12-16.24,0-8.54.24-14.79,5-16.9,12.8a26.85,26.85,0,0,0-.8,6.87q-.06,80,0,160.08V319.4Zm-.63,10.66H117.08c0,8.85-.22,17.54.15,26.21.1,2.33,1.67,4.8,3.11,6.82,4,5.57,9.7,7.44,16.45,7.43q90.32-.12,180.62,0,42.91,0,85.83,0c10,0,17.47-6.26,18.18-16C422,346.46,421.54,338.39,421.54,330.06ZM227.93,410.87h83V381h-83Z"/><path class="cls-3" d="M192.33,266V198.73c0-3.31.11-6.63-.07-9.94s-2.06-4.91-5.09-4.9-4.85,1.67-5.15,4.86c-.08.87-.05,1.76-.05,2.65q0,35.46,0,70.92c0,1.17-.11,2.35-.17,3.58h-15.2v-3.53c0-11.16,0-22.32,0-33.48,0-4.37-2.57-6.62-6.43-5.79-3.28.71-3.91,3.2-3.9,6.06q0,16.56,0,33.14v3.17c-.52.41-.61.54-.7.54-2.43.06-4.85.06-7.28.15-3.38.13-5.31,2-5.35,5s1.88,5,5.22,5.12c2.76.1,5.53,0,8.29,0q47.72,0,95.44,0c4.17,0,6.27-1.77,6.26-5.11s-2.12-5-6.3-5.07c-2.27,0-4.54,0-7,0v-3.82q0-20.55,0-41.09c0-10.39,0-20.77,0-31.16,0-4.51-2.32-6.73-6.19-6.13-2.9.45-4.16,2.35-4.16,6.5q0,35.81,0,71.59v3.91H218.49v-3.75c0-10.71.11-21.43-.11-32.14a7.55,7.55,0,0,0-2.39-5.3c-3.38-2.49-7.64.18-7.68,4.63-.08,10.94,0,21.87,0,32.81v3.95H194.41C193.88,266.13,193.35,266.07,192.33,266Z"/><path class="cls-2" d="M340.72,292.48c-3.15-.83-6.57-1.14-9.39-2.61-5.19-2.7-7-7.54-7-13.32a4.68,4.68,0,0,0-2-3.58c-.83-.44-2.75.3-3.67,1.1-8.15,7-15.19,6.65-22.36-1.41l-2-2.22c-5.18-5.88-5.07-12.56,0-18.53a6.77,6.77,0,0,0,1.48-4.59c-.07-.7-2.32-1.56-3.66-1.71-7.52-.86-12.25-5.85-12.44-13.43-.05-2.09,0-4.19,0-6.29.08-8,5.13-13.21,13.07-13.87,1.5-.12,2.93-1,4.4-1.48-.65-1.52-1-3.27-2-4.51-4.32-5.35-4.27-12.47.44-17.51a60.17,60.17,0,0,1,5.14-4.69c5.55-4.7,12.11-4.87,17.9-.51,3.84,2.89,5.79,2.06,6.43-2.73,1.07-8,7.19-11.89,18.53-11.73,7.64.11,13.4,5.06,14.12,12.17a17,17,0,0,0,.17,3.29c.39,1.26,1,3,1.94,3.39a4.27,4.27,0,0,0,3.71-1c2.88-2.81,6-4.82,10.14-4.91,9.79-.22,19.81,12.33,16.94,21.64-.74,2.4-2.79,4.38-4.12,6.61-.62,1-1.61,2.54-1.27,3.31a4.65,4.65,0,0,0,3.15,2.3c9.92,1.32,13.68,5.47,13.7,15.49,0,1,0,2,0,3,0,8.15-5,13.35-13.23,14-1.47.13-2.87,1.07-4.3,1.64.54,1.33.8,2.9,1.67,4,5.09,6.27,4.66,14.07-1.27,19.61-1.37,1.28-2.78,2.52-4.21,3.74a12.93,12.93,0,0,1-17,.37c-3.91-3-5.77-2.35-6.53,2.43C356,287.91,350.55,291.87,340.72,292.48Zm20.63-28c2.47,1.09,5.18,1.84,7.35,3.36,4,2.78,3.85,3,7.59-.36.57-.51,1.13-1.06,1.72-1.55,2.14-1.76,2.31-3.63.35-5.63-4.16-4.24-5.21-9.26-2.92-14.62s7-7.79,12.73-7.86c2.95,0,4.25-1.39,4.17-4.26,0-1.22,0-2.44,0-3.65.14-3-1.28-4.26-4.32-4.55a18.68,18.68,0,0,1-7.52-2.05c-7.07-4.17-8.15-14-2.49-20,3-3.21,3-3.84.1-7.16L377,194.9c-3-3.37-4-3.42-7.22-.36-3.81,3.61-8.22,5.08-13.38,3.65-6.33-1.75-9.6-6.45-9.94-13.59-.08-1.7-.81-4.58-1.71-4.78a20.13,20.13,0,0,0-8.74,0c-1,.23-1.62,3-1.94,4.78-1.77,9.5-12.87,14.23-20.52,8.67-4.42-3.22-4.42-3.22-8.69.58-3.85,3.44-3.85,3.48-.61,7.33a13,13,0,0,1-6.14,21.07,17.57,17.57,0,0,1-4.57.64c-3,0-4.18,1.55-4.1,4.37,0,1,0,2,0,3,.07,4,.76,4.73,4.83,5,5.7.3,10,2.84,12.11,8.24s1.3,10.45-3.14,14.52c-2.14,2-2.44,3.78-.23,5.83a23.06,23.06,0,0,1,1.55,1.73c3.37,3.79,4.12,3.87,7.66.42a13.17,13.17,0,0,1,13.14-3.4c6.4,1.59,9.71,6.34,9.84,13.87.08,4.22.92,5.07,5,5.1.89,0,1.78,0,2.66,0,3.14.22,4.56-1.13,4.83-4.37C348.34,270.05,354.07,265,361.35,264.49Z"/><path class="cls-2" d="M192.33,266c1,.07,1.55.13,2.08.13h13.87v-3.95c0-10.94-.05-21.87,0-32.81,0-4.45,4.3-7.12,7.68-4.63a7.55,7.55,0,0,1,2.39,5.3c.22,10.71.11,21.43.11,32.14v3.75h15.94V262q0-35.79,0-71.59c0-4.15,1.26-6.05,4.16-6.5,3.87-.6,6.18,1.62,6.19,6.13,0,10.39,0,20.77,0,31.16q0,20.55,0,41.09v3.82c2.49,0,4.76,0,7,0,4.18,0,6.28,1.75,6.3,5.07s-2.09,5.11-6.26,5.11q-47.71,0-95.44,0c-2.76,0-5.53.07-8.29,0-3.34-.11-5.25-2.05-5.22-5.12s2-4.9,5.35-5c2.43-.09,4.85-.09,7.28-.15.09,0,.18-.13.7-.54V262.3q0-16.58,0-33.14c0-2.86.62-5.35,3.9-6.06,3.86-.83,6.41,1.42,6.43,5.79,0,11.16,0,22.32,0,33.48v3.53h15.2c.06-1.23.17-2.41.17-3.58q0-35.46,0-70.92c0-.89,0-1.78.05-2.65.3-3.19,2.08-4.86,5.15-4.86s4.91,1.67,5.09,4.9.07,6.63.07,9.94V266Z"/><path class="cls-4" d="M265.1,338.57a12.13,12.13,0,1,1-12,12.1A11.83,11.83,0,0,1,265.1,338.57Zm4.15,12.26a3.9,3.9,0,0,0-4-4.17,3.85,3.85,0,0,0-4.1,3.78,4.05,4.05,0,1,0,8.09.39Z"/><path class="cls-2" d="M389.32,350.73c0,4.27-1.81,6.45-5.32,6.37s-5-2.14-5-6.34,1.67-6.35,4.93-6.42S389.31,346.65,389.32,350.73Z"/><path class="cls-2" d="M341.92,350.62c0,4.43-1.67,6.54-5.17,6.49s-5-2.1-5.06-6.29c0-4.45,1.61-6.49,5.19-6.46S341.91,346.36,341.92,350.62Z"/><path class="cls-2" d="M355.37,350.58c0-4.22,1.67-6.23,5.07-6.22s5.2,2.29,5.17,6.55-1.73,6.19-5.13,6.19S355.33,355,355.37,350.58Z"/><path class="cls-2" d="M315.77,230A25.2,25.2,0,1,1,341,255.31,25.17,25.17,0,0,1,315.77,230Zm40,.28A14.85,14.85,0,0,0,341,215.2a15.33,15.33,0,0,0-15,15A15,15,0,0,0,340.73,245,14.85,14.85,0,0,0,355.79,230.26Z"/></g></svg>